# AST/ASF file generated using VICON BodyLanguage
# -----------------------------------------------
:version 1.10
:name VICON
:units
  mass 1.0
  length 0.45
  angle deg
:documentation
   .ast/.asf automatically generated from VICON data using
   VICON BodyBuilder and BodyLanguage model FoxedUp or BRILLIANT.MOD
:root
   order TX TY TZ RX RY RZ
   axis XYZ
   position 0 0 0  
   orientation 0 0 0 
:bonedata
  begin
     id 1 
     name lhipjoint
     direction 0.630082 -0.636569 0.44472 
     length 2.82754 
     axis 0 0 0  XYZ
  end
  begin
     id 2 
     name lfemur
     direction 0.34202 -0.939693 0  
     length 7.26371  
     axis 0 0 20  XYZ
    dof rx ry rz
    limits (-160.0 20.0)
           (-70.0 70.0)
           (-60.0 70.0)
  end
  begin
     id 3 
     name ltibia
     direction 0.34202 -0.939693 0   
     length 7.88616   
     axis 0 0 20   XYZ
    dof rx
    limits (-10.0 170.0)
  end
  begin
     id 4 
     name lfoot
     direction 0.0603448 -0.165796 0.984312   
     length 1.77861   
     axis -90 7.62852e-016 20   XYZ
    dof rx rz
    limits (-45.0 90.0)
           (-70.0 20.0)
  end
  begin
     id 5 
     name ltoes
     direction 1.53577e-011 -4.21876e-011 1   
     length 0.902235   
     axis -90 7.62852e-016 20   XYZ
    dof rx
    limits (-90.0 20.0)
  end
  begin
     id 6 
     name rhipjoint
     direction -0.656778 -0.61817 0.431866   
     length 2.9117  
     axis 0 0 0  XYZ 
  end
  begin
     id 7 
     name rfemur
     direction -0.34202 -0.939693 0   
     length 6.81603   
     axis 0 0 -20   XYZ
    dof rx ry rz
    limits (-160.0 20.0)
           (-70.0 70.0)
           (-70.0 60.0)
  end
  begin
     id 8 
     name rtibia
     direction -0.34202 -0.939693 0   
     length 8.05997   
     axis 0 0 -20   XYZ
    dof rx
    limits (-10.0 170.0)
 end
 begin
     id 9 
     name rfoot
     direction -0.0862404 -0.236944 0.967688   
     length 1.84899  
     axis -90 -7.62852e-016 -20   XYZ
    dof rx rz
    limits (-45.0 90.0)
           (-20.0 70.0)
  end
  begin
     id 10 
     name rtoes
     direction -1.53561e-011 -4.21798e-011 1   
     length 0.931579   
     axis -90 -7.62852e-016 -20   XYZ
    dof rx
    limits (-90.0 20.0)
  end
  begin
     id 11 
     name lowerback
     direction -0.0110203 0.991769 -0.127564   
     length 2.05686   
     axis 0 0 0   XYZ
    dof rx ry rz
    limits (-20.0 45.0)
           (-30.0 30.0)
           (-30.0 30.0)
  end
  begin
     id 12 
     name upperback
     direction 0.0109719 0.99993 -0.00432479   
     length 2.06234   
     axis 0 0 0   XYZ
    dof rx ry rz
    limits (-20.0 45.0)
           (-30.0 30.0)
           (-30.0 30.0)
  end
  begin
     id 13 
     name thorax
     direction 0.0173308 0.998351 0.0547306   
     length 2.09856   
     axis 0 0 0   XYZ
    dof rx ry rz
    limits (-20.0 45.0)
           (-30.0 30.0)
           (-30.0 30.0)
  end
  begin
     id 14 
     name lowerneck
     direction -0.0311736 0.989033 0.144366   
     length 1.98151   
     axis 0 0 0   XYZ
    dof rx ry rz
    limits (-20.0 45.0)
           (-30.0 30.0)
           (-30.0 30.0)
  end
  begin
     id 15 
     name upperneck
     direction 0.0421057 0.975772 -0.214698   
     length 2.01457   
     axis 0 0 0   XYZ
    dof rx ry rz
    limits (-20.0 45.0)
           (-30.0 30.0)
           (-30.0 30.0)
  end
  begin
     id 16
     name head
     direction 0.0136911 0.995958 -0.0887718  
     length 2.03562  
     axis 0 0 0   XYZ
    dof rx ry rz
    limits (-20.0 45.0)
           (-30.0 30.0)
           (-30.0 30.0)
  end
  begin
     id 17 
     name lclavicle
     direction 0.915335 0.396201 0.0720134  
     length 4.16217  
     axis 0 0 0   XYZ
    dof ry rz
    limits (-20.0 10.0)
           (0.0 20.0)
  end
  begin
     id 18 
     name lhumerus
     direction 1 -4.48965e-011 6.383e-018   
     length 4.93042   
     axis -180 -30 -90   XYZ
    dof rx ry rz
    limits (-60.0 90.0)
           (-90.0 90.0)
           (-90.0 90.0)
  end
  begin
     id 19
     name lradius
     direction 1 -4.48972e-011 8.8689e-027   
     length 3.68177   
     axis -180 -30 -90   XYZ
    dof rx
    limits (-10.0 170.0)
  end
  begin
     id 20
     name lwrist
     direction 1 -4.48953e-011 1.17971e-026   
     length 1.84089   
     axis -7.69454e-015 90 90   XYZ
    dof ry
    limits (-180.0 0.0)
 end
  begin
     id 21 
     name lhand
     direction 1 -4.49027e-011 2.35802e-026   
     length 0.721479   
     axis -1.50533e-014 90 90   XYZ
    dof rx rz
    limits (-90.0 90.0)
           (-45.0 45.0)
  end
  begin
     id 22 
     name lfingers
     direction 1 -4.48915e-011 4.72027e-026   
     length 0.581675   
     axis -3.01059e-014 90 90   XYZ
    dof rx
    limits (0.0 90.0)
  end
  begin
     id 23
     name lthumb
     direction 0.707107 -6.34948e-011 0.707107   
     length 0.835172   
     axis -90 45 -5.12164e-014   XYZ
    dof rx rz
    limits (-45.0 45.0)
           (-45.0 45.0)
  end
  begin
     id 24 
     name rclavicle
     direction -0.882781 0.469197 0.0234974   
     length 3.95647  
     axis 0 0 0   XYZ 
    dof ry rz
    limits (-10.0 20.0)
           (-20.0 0.0)
  end
  begin
     id 25 
     name rhumerus
     direction -1 -4.48965e-011 -1.54906e-018  
     length 5.07905   
     axis -180 30 90   XYZ
    dof rx ry rz
    limits (-90.0 60.0)
           (-90.0 90.0)
           (-90.0 90.0)
  end
  begin
     id 26 
     name rradius
     direction -1 -4.48972e-011 5.47489e-027   
     length 3.54394   
     axis -180 30 90   XYZ
    dof rx
    limits (-10.0 170.0)
  end
  begin
     id 27 
     name rwrist
     direction -1 -4.48955e-011 1.17969e-026   
     length 1.77197   
     axis -7.69454e-015 -90 -90   XYZ
    dof ry
    limits (-180.0 0.0)
  end
  begin
     id 28
     name rhand
     direction -1 -4.48982e-011 2.35888e-026   
     length 0.681156   
     axis -1.50533e-014 -90 -90   XYZ
    dof rx rz
    limits (-90.0 90.0)
           (-45.0 45.0)
  end
  begin
     id 29
     name rfingers
     direction -1 -4.48955e-011 4.71877e-026   
     length 0.549165   
     axis -3.01059e-014 -90 -90   XYZ
    dof rx
    limits (0.0 90.0)
  end
  begin
     id 30
     name rthumb
     direction -0.707107 -6.3491e-011 0.707107   
     length 0.788495   
     axis -90 -45 5.12164e-014   XYZ
    dof rx rz
    limits (-45.0 45.0)
           (-45.0 45.0)
  end
:hierarchy
  begin
    root lhipjoint rhipjoint lowerback
    lhipjoint lfemur
    lfemur ltibia
    ltibia lfoot
    lfoot ltoes
    rhipjoint rfemur
    rfemur rtibia
    rtibia rfoot
    rfoot rtoes
    lowerback upperback
    upperback thorax
    thorax lowerneck lclavicle rclavicle
    lowerneck upperneck
    upperneck head
    lclavicle lhumerus
    lhumerus lradius
    lradius lwrist
    lwrist lhand lthumb
    lhand lfingers
    rclavicle rhumerus
    rhumerus rradius
    rradius rwrist
    rwrist rhand rthumb
    rhand rfingers
  end

#!OML:ASF H:\Bending\Project 1\Capture day 1\Session 1\Subject.ASF
:FULLY-SPECIFIED
:DEGREES
385
root -10.8957 18.0018 -16.479 -106.822 88.723 -111.184
lowerback 5.79079 0.216843 1.07013
upperback -2.6667 0.530849 2.1726
thorax -6.04001 0.278875 1.60352
lowerneck -21.3458 -3.75661 -6.07017
upperneck 30.8837 -3.54236 2.48278
head 14.3587 -1.69828 1.44436
rclavicle -2.17421e-015 7.15625e-015
rhumerus -47.8061 -7.85441 -69.4632
rradius 33.0808
rwrist 13.7573
rhand -14.3778 -12.7113
rfingers 7.12502
rthumb 11.7648 -42.3609
lclavicle -2.17421e-015 7.15625e-015
lhumerus -40.3484 7.1003 87.069
lradius 27.7056
lwrist 18.7479
lhand -30.4532 7.80932
lfingers 7.12502
lthumb -3.75508 37.756
rfemur 3.90867 -3.68474 16.5215
rtibia -9.54166e-015
rfoot -11.5311 -16.4439
rtoes 19.4922
lfemur -11.3333 -28.5724 -12.8122
ltibia 22.8926
lfoot -34.1937 26.3117
ltoes -5.54745
386
root -10.9034 18.0008 -16.4801 -104.892 88.7548 -109.281
lowerback 5.75133 0.241347 1.0458
upperback -2.65556 0.560162 2.1717
thorax -6.00644 0.29423 1.61301
lowerneck -21.3625 -3.76631 -6.04595
upperneck 30.8591 -3.56093 2.46719
head 14.3514 -1.70597 1.42981
rclavicle 2.62147e-015 1.35174e-014
rhumerus -47.8111 -7.89816 -69.4149
rradius 33.0523
rwrist 13.7802
rhand -14.4757 -13.0786
rfingers 7.12502
rthumb 11.6704 -42.7336
lclavicle 2.62147e-015 1.35174e-014
lhumerus -40.3138 6.84309 87.2945
lradius 28.1803
lwrist 19.101
lhand -30.4854 7.84167
lfingers 7.12502
lthumb -3.78625 37.7878
rfemur 3.87072 -3.63695 16.4887
rtibia 1.59028e-015
rfoot -11.6481 -16.3179
rtoes 20.3792
lfemur -11.4182 -28.6371 -12.8036
ltibia 22.9707
lfoot -34.3863 26.2822
ltoes -5.20519
387
root -10.9115 17.9997 -16.4808 -100.923 88.7626 -105.333
lowerback 5.72211 0.269211 1.06412
upperback -2.6432 0.597958 2.17249
thorax -5.97731 0.312187 1.59939
lowerneck -21.3721 -3.75671 -5.99815
upperneck 30.8352 -3.55161 2.42696
head 14.3401 -1.70243 1.40652
rclavicle -7.1811e-015 -3.4191e-014
rhumerus -47.8141 -7.9135 -69.3938
rradius 33.0295
rwrist 13.7861
rhand -14.6722 -13.5289
rfingers 7.12502
rthumb 11.4809 -43.1945
lclavicle -7.1811e-015 -3.4191e-014
lhumerus -40.2819 6.62215 87.4787
lradius 28.6702
lwrist 19.4097
lhand -30.4433 7.88952
lfingers 7.12502
lthumb -3.74558 37.8364
rfemur 3.81962 -3.55267 16.4912
rtibia -1.43125e-014
rfoot -11.743 -16.2112
rtoes 21.1472
lfemur -11.4959 -28.7321 -12.766
ltibia 23.0668
lfoot -34.6428 26.2586
ltoes -4.73906
388
root -10.9199 17.9982 -16.4814 -96.277 88.7258 -100.698
lowerback 5.70833 0.293509 1.13207
upperback -2.62943 0.636246 2.18326
thorax -5.95518 0.328792 1.56823
lowerneck -21.3718 -3.73045 -5.94226
upperneck 30.8096 -3.51396 2.36626
head 14.3237 -1.68872 1.37893
rclavicle 4.72114e-016 -7.95139e-015
rhumerus -47.8107 -7.89405 -69.3867
rradius 33.0093
rwrist 13.782
rhand -14.8717 -13.9685
rfingers 7.12502
rthumb 11.2885 -43.6447
lclavicle 4.72114e-016 -7.95139e-015
lhumerus -40.2437 6.43061 87.6418
lradius 29.1485
lwrist 19.641
lhand -30.3576 7.94022
lfingers 7.12502
lthumb -3.66279 37.8885
rfemur 3.77071 -3.45801 16.5363
rtibia 1.27222e-014
rfoot -11.8499 -16.1067
rtoes 21.9293
lfemur -11.58 -28.7646 -12.6882
ltibia 23.1894
lfoot -34.8318 26.2246
ltoes -4.46849
389
root -10.9288 17.9962 -16.4819 -92.7459 88.6493 -97.1682
lowerback 5.70887 0.308675 1.23614
upperback -2.61403 0.666585 2.20651
thorax -5.93914 0.340475 1.53063
lowerneck -21.3658 -3.69494 -5.89335
upperneck 30.7801 -3.4566 2.29522
head 14.3034 -1.6689 1.35205
rclavicle 3.16813e-015 2.46493e-014
rhumerus -47.798 -7.82707 -69.3921
rradius 32.9939
rwrist 13.753
rhand -14.9998 -14.3158
rfingers 7.12502
rthumb 11.1649 -43.9988
lclavicle 3.16813e-015 2.46493e-014
lhumerus -40.1914 6.23912 87.817
lradius 29.5992
lwrist 19.8043
lhand -30.2974 7.97581
lfingers 7.12502
lthumb -3.60469 37.9251
rfemur 3.73686 -3.38313 16.6116
rtibia 7.95139e-015
rfoot -11.9881 -15.9916
rtoes 22.774
lfemur -11.679 -28.6989 -12.5787
ltibia 23.3344
lfoot -34.8791 26.1829
ltoes -4.58224
390
root -10.9378 17.9938 -16.4828 -91.353 88.5619 -95.7728
lowerback 5.71652 0.311513 1.34824
upperback -2.59747 0.681796 2.23701
thorax -5.92566 0.344615 1.49772
lowerneck -21.3643 -3.6592 -5.86128
upperneck 30.7486 -3.3937 2.22831
head 14.2836 -1.64814 1.3307
rclavicle 2.54693e-015 3.10104e-014
rhumerus -47.776 -7.70464 -69.4173
rradius 32.9904
rwrist 13.6774
rhand -15.0293 -14.5381
rfingers 7.12502
rthumb 11.1365 -44.2226
lclavicle 2.54693e-015 3.10104e-014
lhumerus -40.1217 6.01713 88.0298
lradius 30.0195
lwrist 19.9406
lhand -30.3293 7.98007
lfingers 7.12502
lthumb -3.63546 37.9288
rfemur 3.72254 -3.35171 16.6881
rtibia -2.22639e-014
rfoot -12.1538 -15.8655
rtoes 23.6227
lfemur -11.7933 -28.5725 -12.4634
ltibia 23.4848
lfoot -34.7965 26.1533
ltoes -5.06344
391
root -10.9465 17.9917 -16.4842 -92.1568 88.4965 -96.5774
lowerback 5.72117 0.301815 1.43887
upperback -2.58126 0.678095 2.26413
thorax -5.91067 0.340153 1.47538
lowerneck -21.3774 -3.63037 -5.84719
upperneck 30.7207 -3.33931 2.17826
head 14.27 -1.63073 1.31756
rclavicle 8.69683e-017 7.95139e-015
rhumerus -47.7485 -7.53906 -69.4671
rradius 33.0039
rwrist 13.5516
rhand -14.9851 -14.6526
rfingers 7.12502
rthumb 11.1791 -44.3347
lclavicle 8.69683e-017 7.95139e-015
lhumerus -40.036 5.74998 88.2846
lradius 30.4174
lwrist 20.0995
lhand -30.4742 7.9492
lfingers 7.12502
lthumb -3.7754 37.8955
rfemur 3.72248 -3.37387 16.734
rtibia -2.22639e-014
rfoot -12.3266 -15.7397
rtoes 24.3684
lfemur -11.9154 -28.467 -12.3728
ltibia 23.616
lfoot -34.6568 26.1611
ltoes -5.73489
